<svg xmlns="http://www.w3.org/2000/svg" width="35.776" height="35.776" viewBox="0 0 35.776 35.776">
  <path id="Icon_material-add-to-photos" data-name="Icon material-add-to-photos" d="M6.578,10.155H3V35.2a3.588,3.588,0,0,0,3.578,3.578H31.621V35.2H6.578ZM35.2,3H13.733a3.588,3.588,0,0,0-3.578,3.578V28.043a3.588,3.588,0,0,0,3.578,3.578H35.2a3.588,3.588,0,0,0,3.578-3.578V6.578A3.588,3.588,0,0,0,35.2,3ZM33.41,19.1H26.255v7.155H22.677V19.1H15.522V15.522h7.155V8.366h3.578v7.155H33.41Z" transform="translate(-3 -3)" fill="#fff"/>
</svg>
