<svg xmlns="http://www.w3.org/2000/svg" width="32.197" height="32.199" viewBox="0 0 32.197 32.199">
  <path id="Icon_material-update" data-name="Icon material-update" d="M36.7,17.236H24.57l4.9-5.044A12.591,12.591,0,0,0,11.8,12.013a12.3,12.3,0,0,0,0,17.513,12.557,12.557,0,0,0,17.674,0,11.651,11.651,0,0,0,3.649-8.747H36.7A16.709,16.709,0,0,1,31.976,32.03a16.2,16.2,0,0,1-22.754,0,15.813,15.813,0,0,1-.036-22.5,16.077,16.077,0,0,1,22.629,0L36.7,4.5Zm-15.2-3.792v7.6l6.261,3.721-1.288,2.164L18.81,22.388V13.444Z" transform="translate(-4.502 -4.5)" fill="#fff"/>
</svg>
